<svg xmlns="http://www.w3.org/2000/svg"
     xmlns:xlink="http:www.w3.org/1999/xlink">
<!--rectangle with text-->
<rect x="0" y="0" height="50" width="100" style="stroke:#000000; fill:#ffffff; fill-opacity: 0.0"/>
<text x="50" y="25" style="font-family: monospace; font-size: 10; text-anchor: middle">ABCDEFG ABCDEFG</text>
<!--rectangle with two lines of centred text-->
<rect x="0" y="100" height="50" width="100" style="stroke:#000000; fill:#ffffff; fill-opacity: 0.0"/>
<text x="50" y="125" style="font-family: monospace; font-size :10">
    <tspan x="50" style="text-anchor: middle">ABCDEFG ABCDEFG</tspan><tspan x="50" dy="10" style="text-anchor: middle">ABCDEFG ABCDEFG</tspan>
</text>
<!--diamond with empty-->
<polygon points="0,375 50,350 100,375 50,400" style="stroke: #000000; fill: #ffffff; fill-opacity: 0.0"/>
<!--diamond with circle with dark stroke-->
<polygon points="0,475 50,450 100,475 50,500" style="stroke: #000000; fill: #ffffff; fill-opacity: 0.0"/>
<circle cx="50" cy="475" r="10" style="stroke: #000000; stroke-width: 2; fill: #ffffff; fill-opacity: 0.0"/>
<!--line without arrows-->
<line x1="0" y1="525" x2="100" y2="525" style="stroke:#000000;"/>
<!--
<rect x="0" y="0" height="100" width="100" style="stroke:#0000ff;fill:#ffffff"/>
<line x1="100" y1="50" x2="150" y2="50" style="stroke: black;"/>
<polygon points="50, 160 55, 180 70, 180 60, 190 65, 205 50, 195 35, 205 40, 190 30, 180 45, 180" style="stroke:#0000ff;fill:#ffffff"/>
-->
</svg>
